<svg width="99" height="108" viewBox="0 0 99 108" fill="none" xmlns="http://www.w3.org/2000/svg">
<g filter="url(#filter0_dd_14_39)">
<mask id="path-1-inside-1_14_39" fill="white">
<path d="M94.3414 83.0229C94.0679 80.8348 90.6295 78.51 88.8322 76.7908C87.8358 75.8139 83.1666 72.2778 82.8931 70.9494C82.6196 69.66 84.7881 66.749 85.4915 65.3033C86.4878 63.213 87.2107 60.6732 87.6991 58.9345C91.3719 46.0209 91.7431 28.2819 86.4878 17.6736C84.4951 13.6491 78.9468 8.10076 75.4693 5.46334C67.264 -0.729696 52.1037 -1.43301 42.2379 2.2203C39.4832 3.23619 36.8067 4.13487 34.4038 5.56103C27.9372 9.35109 21.0604 11.9104 19.1458 19.5491C14.418 21.659 12.9919 27.7153 13.2263 34.7484C13.2654 36.116 14.0273 37.8352 13.7538 39.1246C13.617 39.7693 12.7379 40.6093 12.5621 41.0391C10.2958 46.4507 12.1127 53.5424 14.7306 57.3911C16.3131 59.7159 18.9309 61.7673 22.3889 62.3143C22.5256 64.3851 23.0336 66.1629 23.9909 68.2533C24.5965 69.5818 26.8627 71.9653 26.0226 73.6649C25.5928 74.5245 21.92 76.361 20.6892 77.1033C16.567 79.5454 13.578 81.0692 9.76836 83.8043C7.30677 85.5626 3.4581 85.797 4.06373 89.8801C4.47399 92.6348 6.03691 96.0536 6.93558 98.8278C7.07233 99.2185 7.20909 99.6288 7.34584 100H89.7895C90.7467 97.0109 91.6845 93.9633 92.6418 90.7788C93.306 88.5517 94.6345 85.3477 94.3414 83.0229ZM39.4051 6.57692C39.7567 6.47924 40.0693 6.71367 40.3624 7.04579C40.3233 8.06169 39.3074 8.04215 38.6236 8.37427C37.5687 9.68321 36.0057 10.2888 34.7163 11.7345C33.3879 13.1998 31.9031 17.1461 30.1448 17.5955C29.2657 17.8104 28.2498 17.4392 27.4879 17.4978C25.4561 17.6345 24.0299 18.67 21.9591 18.963C24.616 13.1216 32.919 8.41334 39.4051 6.57692ZM18.9309 24.863C21.5683 21.9521 25.2021 20.1547 29.6369 19.8031C31.9226 25.6054 27.9958 32.5017 29.4611 38.8706C29.9104 40.8047 31.4538 43.8328 28.9922 43.8914C29.0508 38.3626 22.1935 34.8461 17.0164 38.1087C16.6647 33.9083 16.0591 28.0084 18.9309 24.863ZM26.1008 63.9749C25.9054 63.1739 25.5733 61.4547 25.6515 61.0249C25.964 59.3252 28.9922 58.5828 27.8005 56.1994C25.5928 56.1799 25.1044 58.1921 23.0922 58.407C17.876 58.9149 14.1836 51.4911 14.418 46.9977C14.6134 43.1881 17.8564 39.5348 22.2521 40.0037C25.3779 40.3554 26.4329 43.7547 27.0385 46.7828C28.8359 46.8805 31.4342 46.7047 32.2938 45.2981C32.1766 41.8792 30.5746 39.1246 30.6918 35.9792C30.8872 30.0597 34.1107 24.7262 31.6296 18.9044C34.2865 12.8676 42.0816 8.10076 47.8643 5.22891C55.0147 1.65375 66.4044 4.50606 73.1249 8.31566C76.9736 10.4842 79.8454 14.7041 82.561 18.2206C78.7514 17.0875 75.5084 19.0411 76.0944 22.1865C79.2789 19.2756 84.7295 22.1474 86.3511 25.3905C87.8944 28.4772 87.8749 33.0683 88.1093 37.6593C88.6759 48.7951 86.0775 60.302 80.4706 68.351C78.9663 70.5 77.716 72.8444 75.606 74.3292C70.5266 77.8848 62.8292 81.1083 56.2259 78.9007C47.4932 75.9702 43.5273 70.1484 38.7408 63.506C38.8776 67.1593 41.4369 70.1679 43.9766 72.9616C46.1842 75.4037 48.8607 78.1583 51.7326 79.2914C49.3296 78.7249 45.6567 78.549 44.6604 80.698C39.073 80.3268 33.8958 79.7603 31.2389 75.9702C29.168 72.9616 27.0581 67.8822 26.1008 63.9749ZM69.4716 88.2196C70.2726 87.6335 71.6401 87.653 72.8709 87.5162C71.816 86.9888 70.3312 86.7934 69.1004 87.0864C69.0809 86.2659 68.7097 85.758 68.4753 85.0937C70.5461 84.3513 75.4107 79.5258 78.1653 81.1278C79.4742 81.8898 80.0213 86.2464 80.1385 88.3563C80.2166 90.1146 79.9822 91.8729 79.2593 92.8106C75.5865 92.6934 72.2653 92.2636 69.3544 91.4431C69.5302 90.2513 69.159 89.0792 69.4716 88.2196ZM66.1113 84.3123C62.8292 84.4686 61.0319 84.0778 58.6289 82.2023C58.668 82.046 58.9024 82.1047 58.9219 81.9288C62.4385 83.4917 66.8928 81.2841 70.4484 80.9715C68.905 81.9679 67.5961 83.2378 66.1113 84.3123ZM63.7474 90.7984C63.4349 88.9619 63.0637 88.454 63.2004 86.852C68.0845 83.609 69.0027 92.4394 63.7474 90.7984ZM43.3319 85.6798C41.0657 85.5431 33.9349 82.9447 35.8104 81.0497C37.6468 82.3196 41.1829 82.007 43.8789 82.4759C44.0352 83.3354 43.3319 84.4686 43.3319 85.6798ZM10.4521 97.1086C9.61207 94.6275 8.65478 92.205 7.56075 89.8997C13.578 85.25 20.318 80.3464 27.5269 77.4941C28.074 77.2792 32.0594 82.4563 32.6455 82.8861C35.869 85.1719 39.874 86.9888 43.6249 88.7861C43.8594 90.5053 44.3869 92.7325 45.3246 95.7215C45.4614 96.1709 45.5981 96.6397 45.7544 97.1282H10.4521V97.1086ZM57.4567 98.2222H57.3004C57.359 98.1831 57.3981 98.144 57.4567 98.1245V98.2222ZM58.9219 97.1086C59.3322 96.8351 59.762 96.5616 60.1723 96.2685C60.3872 96.5421 60.6021 96.8156 60.7974 97.1086H58.9219ZM61.8719 92.2831C59.762 93.7093 57.8474 95.8583 55.3663 97.2063C54.1941 97.851 50.0915 99.4921 48.8412 99.199C48.1379 99.0427 48.0792 98.1636 47.7862 97.343C47.1806 95.5848 45.813 92.7715 45.6763 90.1146C45.52 86.7543 45.1879 81.1278 48.8021 81.8311C51.713 82.3977 55.1123 83.7262 57.3786 84.9765C58.7657 85.7384 59.5471 86.6566 61.657 86.8325C61.6375 87.106 61.6375 87.3795 61.618 87.6725C60.4653 88.4344 58.6289 88.4149 57.359 89.0596C59.215 89.1378 60.6802 89.5871 61.9501 90.2123C61.9305 90.8765 61.8915 91.5798 61.8719 92.2831ZM72.3044 97.1086H69.5693C69.5498 96.4835 69.0223 95.9755 68.3776 95.9755C67.7329 95.9755 67.2249 96.4835 67.1858 97.1086H63.7865C63.2395 96.249 62.6729 95.4285 62.0478 94.6666C62.458 94.2368 62.8292 93.7484 63.22 93.3186C64.9782 94.0414 66.1113 92.3613 67.4594 92.498C69.0027 92.6543 70.2335 94.7838 72.4216 94.647L72.3044 97.1086ZM74.0041 97.1086C74.0431 96.3272 74.0822 95.5848 74.1213 94.8619C77.1689 93.4358 79.7868 95.1159 81.0958 97.1086H74.0041ZM90.2974 89.8801C89.8481 92.0682 89.1643 94.5689 88.3633 97.1282C88.3242 97.1086 88.2852 97.1086 88.2461 97.1086H82.7954C82.9127 96.8937 83.0299 96.6788 83.1666 96.4639C82.6587 95.2722 81.4083 94.7642 81.0372 93.4358C83.4011 89.001 82.307 75.1888 76.3093 78.0997C77.1494 76.8689 79.357 75.853 80.3729 74.3292C82.9127 76.361 84.4365 78.2951 86.859 80.4636C88.1875 81.6358 90.7663 83.0619 91.0398 84.9765C91.1961 86.051 90.5318 88.6689 90.2974 89.8801ZM42.5895 25.4882C43.6445 22.5772 47.9034 18.709 51.3809 19.2365C52.8852 19.4709 54.8974 20.8385 53.7643 22.6945C47.8643 21.3269 44.9339 25.156 43.1365 29.161C41.5541 28.7703 42.1792 26.6017 42.5895 25.4882ZM78.556 37.8156C80.158 37.1123 82.9322 37.6789 84.3388 36.7802C83.5183 34.5335 82.3266 32.5994 82.5219 29.415C82.6196 29.415 82.7173 29.415 82.7954 29.4345C84.1239 32.2087 85.2766 35.1391 86.9762 37.5812C85.8626 40.2186 78.4584 42.5434 78.556 37.8156ZM59.6448 38.3431C58.3163 36.2136 55.9329 31.9938 56.812 29.4931C58.0819 31.818 58.4921 34.26 60.2895 35.9987C61.0905 36.7802 62.6729 37.757 61.8915 39.9451C61.7157 40.4726 60.3676 41.6252 59.6057 41.8401C56.7925 42.6802 50.2478 42.016 52.4554 38.4994C54.7802 38.6362 57.9061 40.0232 59.6448 38.3431ZM64.9782 52.0186C65.7206 53.308 65.2517 55.6719 67.3421 56.0431C71.2885 56.7073 75.86 53.6401 78.6928 52.5656C80.4511 49.5961 78.5365 48.5216 76.954 46.607C73.711 42.6997 69.3739 37.8547 69.5302 32.0133C70.8392 31.056 70.9564 33.459 71.1322 33.9083C72.8319 37.8742 77.0713 42.9342 80.1776 46.314C80.9395 47.154 82.1898 47.955 82.3266 48.502C82.7368 50.104 81.2716 52.0186 81.4474 53.0931C77.208 55.8087 72.4997 58.7782 65.5448 58.0944C64.0991 56.7855 63.5325 53.9136 64.9782 52.0186ZM25.6515 50.2212C24.323 49.4593 24.0104 46.1186 22.4475 46.0405C20.2203 45.9037 20.6306 50.3775 20.6306 52.9759C19.1068 51.5888 18.8332 47.2908 19.9468 45.1027C18.6574 44.4775 18.0909 45.806 17.3876 46.2554C18.3058 39.5934 27.1167 43.1686 25.6515 50.2212ZM84.1825 55.8477C82.2093 59.5987 79.4156 63.7404 73.6329 63.8577C73.5156 62.6464 73.418 60.81 73.6329 60.0676C78.0676 59.6378 80.7832 57.3911 84.1825 55.8477ZM56.4604 58.2702C60.1527 60.2043 66.9319 60.4192 71.9527 60.263C72.2262 61.357 72.2067 62.7245 72.2262 64.053C65.7792 64.4047 58.16 62.8027 56.4604 58.2702ZM74.4729 67.3937C74.1408 68.2338 73.4375 69.2106 72.5584 69.5623C70.1945 70.5196 63.6498 71.2619 60.3676 69.5037C58.2772 68.3901 56.9488 65.8894 55.7961 64.4242C55.2491 63.7209 52.4945 61.904 55.757 61.904C58.3163 68.2924 67.0882 67.5696 74.4729 67.3937Z"/>
</mask>
<path d="M94.3414 83.0229C94.0679 80.8348 90.6295 78.51 88.8322 76.7908C87.8358 75.8139 83.1666 72.2778 82.8931 70.9494C82.6196 69.66 84.7881 66.749 85.4915 65.3033C86.4878 63.213 87.2107 60.6732 87.6991 58.9345C91.3719 46.0209 91.7431 28.2819 86.4878 17.6736C84.4951 13.6491 78.9468 8.10076 75.4693 5.46334C67.264 -0.729696 52.1037 -1.43301 42.2379 2.2203C39.4832 3.23619 36.8067 4.13487 34.4038 5.56103C27.9372 9.35109 21.0604 11.9104 19.1458 19.5491C14.418 21.659 12.9919 27.7153 13.2263 34.7484C13.2654 36.116 14.0273 37.8352 13.7538 39.1246C13.617 39.7693 12.7379 40.6093 12.5621 41.0391C10.2958 46.4507 12.1127 53.5424 14.7306 57.3911C16.3131 59.7159 18.9309 61.7673 22.3889 62.3143C22.5256 64.3851 23.0336 66.1629 23.9909 68.2533C24.5965 69.5818 26.8627 71.9653 26.0226 73.6649C25.5928 74.5245 21.92 76.361 20.6892 77.1033C16.567 79.5454 13.578 81.0692 9.76836 83.8043C7.30677 85.5626 3.4581 85.797 4.06373 89.8801C4.47399 92.6348 6.03691 96.0536 6.93558 98.8278C7.07233 99.2185 7.20909 99.6288 7.34584 100H89.7895C90.7467 97.0109 91.6845 93.9633 92.6418 90.7788C93.306 88.5517 94.6345 85.3477 94.3414 83.0229ZM39.4051 6.57692C39.7567 6.47924 40.0693 6.71367 40.3624 7.04579C40.3233 8.06169 39.3074 8.04215 38.6236 8.37427C37.5687 9.68321 36.0057 10.2888 34.7163 11.7345C33.3879 13.1998 31.9031 17.1461 30.1448 17.5955C29.2657 17.8104 28.2498 17.4392 27.4879 17.4978C25.4561 17.6345 24.0299 18.67 21.9591 18.963C24.616 13.1216 32.919 8.41334 39.4051 6.57692ZM18.9309 24.863C21.5683 21.9521 25.2021 20.1547 29.6369 19.8031C31.9226 25.6054 27.9958 32.5017 29.4611 38.8706C29.9104 40.8047 31.4538 43.8328 28.9922 43.8914C29.0508 38.3626 22.1935 34.8461 17.0164 38.1087C16.6647 33.9083 16.0591 28.0084 18.9309 24.863ZM26.1008 63.9749C25.9054 63.1739 25.5733 61.4547 25.6515 61.0249C25.964 59.3252 28.9922 58.5828 27.8005 56.1994C25.5928 56.1799 25.1044 58.1921 23.0922 58.407C17.876 58.9149 14.1836 51.4911 14.418 46.9977C14.6134 43.1881 17.8564 39.5348 22.2521 40.0037C25.3779 40.3554 26.4329 43.7547 27.0385 46.7828C28.8359 46.8805 31.4342 46.7047 32.2938 45.2981C32.1766 41.8792 30.5746 39.1246 30.6918 35.9792C30.8872 30.0597 34.1107 24.7262 31.6296 18.9044C34.2865 12.8676 42.0816 8.10076 47.8643 5.22891C55.0147 1.65375 66.4044 4.50606 73.1249 8.31566C76.9736 10.4842 79.8454 14.7041 82.561 18.2206C78.7514 17.0875 75.5084 19.0411 76.0944 22.1865C79.2789 19.2756 84.7295 22.1474 86.3511 25.3905C87.8944 28.4772 87.8749 33.0683 88.1093 37.6593C88.6759 48.7951 86.0775 60.302 80.4706 68.351C78.9663 70.5 77.716 72.8444 75.606 74.3292C70.5266 77.8848 62.8292 81.1083 56.2259 78.9007C47.4932 75.9702 43.5273 70.1484 38.7408 63.506C38.8776 67.1593 41.4369 70.1679 43.9766 72.9616C46.1842 75.4037 48.8607 78.1583 51.7326 79.2914C49.3296 78.7249 45.6567 78.549 44.6604 80.698C39.073 80.3268 33.8958 79.7603 31.2389 75.9702C29.168 72.9616 27.0581 67.8822 26.1008 63.9749ZM69.4716 88.2196C70.2726 87.6335 71.6401 87.653 72.8709 87.5162C71.816 86.9888 70.3312 86.7934 69.1004 87.0864C69.0809 86.2659 68.7097 85.758 68.4753 85.0937C70.5461 84.3513 75.4107 79.5258 78.1653 81.1278C79.4742 81.8898 80.0213 86.2464 80.1385 88.3563C80.2166 90.1146 79.9822 91.8729 79.2593 92.8106C75.5865 92.6934 72.2653 92.2636 69.3544 91.4431C69.5302 90.2513 69.159 89.0792 69.4716 88.2196ZM66.1113 84.3123C62.8292 84.4686 61.0319 84.0778 58.6289 82.2023C58.668 82.046 58.9024 82.1047 58.9219 81.9288C62.4385 83.4917 66.8928 81.2841 70.4484 80.9715C68.905 81.9679 67.5961 83.2378 66.1113 84.3123ZM63.7474 90.7984C63.4349 88.9619 63.0637 88.454 63.2004 86.852C68.0845 83.609 69.0027 92.4394 63.7474 90.7984ZM43.3319 85.6798C41.0657 85.5431 33.9349 82.9447 35.8104 81.0497C37.6468 82.3196 41.1829 82.007 43.8789 82.4759C44.0352 83.3354 43.3319 84.4686 43.3319 85.6798ZM10.4521 97.1086C9.61207 94.6275 8.65478 92.205 7.56075 89.8997C13.578 85.25 20.318 80.3464 27.5269 77.4941C28.074 77.2792 32.0594 82.4563 32.6455 82.8861C35.869 85.1719 39.874 86.9888 43.6249 88.7861C43.8594 90.5053 44.3869 92.7325 45.3246 95.7215C45.4614 96.1709 45.5981 96.6397 45.7544 97.1282H10.4521V97.1086ZM57.4567 98.2222H57.3004C57.359 98.1831 57.3981 98.144 57.4567 98.1245V98.2222ZM58.9219 97.1086C59.3322 96.8351 59.762 96.5616 60.1723 96.2685C60.3872 96.5421 60.6021 96.8156 60.7974 97.1086H58.9219ZM61.8719 92.2831C59.762 93.7093 57.8474 95.8583 55.3663 97.2063C54.1941 97.851 50.0915 99.4921 48.8412 99.199C48.1379 99.0427 48.0792 98.1636 47.7862 97.343C47.1806 95.5848 45.813 92.7715 45.6763 90.1146C45.52 86.7543 45.1879 81.1278 48.8021 81.8311C51.713 82.3977 55.1123 83.7262 57.3786 84.9765C58.7657 85.7384 59.5471 86.6566 61.657 86.8325C61.6375 87.106 61.6375 87.3795 61.618 87.6725C60.4653 88.4344 58.6289 88.4149 57.359 89.0596C59.215 89.1378 60.6802 89.5871 61.9501 90.2123C61.9305 90.8765 61.8915 91.5798 61.8719 92.2831ZM72.3044 97.1086H69.5693C69.5498 96.4835 69.0223 95.9755 68.3776 95.9755C67.7329 95.9755 67.2249 96.4835 67.1858 97.1086H63.7865C63.2395 96.249 62.6729 95.4285 62.0478 94.6666C62.458 94.2368 62.8292 93.7484 63.22 93.3186C64.9782 94.0414 66.1113 92.3613 67.4594 92.498C69.0027 92.6543 70.2335 94.7838 72.4216 94.647L72.3044 97.1086ZM74.0041 97.1086C74.0431 96.3272 74.0822 95.5848 74.1213 94.8619C77.1689 93.4358 79.7868 95.1159 81.0958 97.1086H74.0041ZM90.2974 89.8801C89.8481 92.0682 89.1643 94.5689 88.3633 97.1282C88.3242 97.1086 88.2852 97.1086 88.2461 97.1086H82.7954C82.9127 96.8937 83.0299 96.6788 83.1666 96.4639C82.6587 95.2722 81.4083 94.7642 81.0372 93.4358C83.4011 89.001 82.307 75.1888 76.3093 78.0997C77.1494 76.8689 79.357 75.853 80.3729 74.3292C82.9127 76.361 84.4365 78.2951 86.859 80.4636C88.1875 81.6358 90.7663 83.0619 91.0398 84.9765C91.1961 86.051 90.5318 88.6689 90.2974 89.8801ZM42.5895 25.4882C43.6445 22.5772 47.9034 18.709 51.3809 19.2365C52.8852 19.4709 54.8974 20.8385 53.7643 22.6945C47.8643 21.3269 44.9339 25.156 43.1365 29.161C41.5541 28.7703 42.1792 26.6017 42.5895 25.4882ZM78.556 37.8156C80.158 37.1123 82.9322 37.6789 84.3388 36.7802C83.5183 34.5335 82.3266 32.5994 82.5219 29.415C82.6196 29.415 82.7173 29.415 82.7954 29.4345C84.1239 32.2087 85.2766 35.1391 86.9762 37.5812C85.8626 40.2186 78.4584 42.5434 78.556 37.8156ZM59.6448 38.3431C58.3163 36.2136 55.9329 31.9938 56.812 29.4931C58.0819 31.818 58.4921 34.26 60.2895 35.9987C61.0905 36.7802 62.6729 37.757 61.8915 39.9451C61.7157 40.4726 60.3676 41.6252 59.6057 41.8401C56.7925 42.6802 50.2478 42.016 52.4554 38.4994C54.7802 38.6362 57.9061 40.0232 59.6448 38.3431ZM64.9782 52.0186C65.7206 53.308 65.2517 55.6719 67.3421 56.0431C71.2885 56.7073 75.86 53.6401 78.6928 52.5656C80.4511 49.5961 78.5365 48.5216 76.954 46.607C73.711 42.6997 69.3739 37.8547 69.5302 32.0133C70.8392 31.056 70.9564 33.459 71.1322 33.9083C72.8319 37.8742 77.0713 42.9342 80.1776 46.314C80.9395 47.154 82.1898 47.955 82.3266 48.502C82.7368 50.104 81.2716 52.0186 81.4474 53.0931C77.208 55.8087 72.4997 58.7782 65.5448 58.0944C64.0991 56.7855 63.5325 53.9136 64.9782 52.0186ZM25.6515 50.2212C24.323 49.4593 24.0104 46.1186 22.4475 46.0405C20.2203 45.9037 20.6306 50.3775 20.6306 52.9759C19.1068 51.5888 18.8332 47.2908 19.9468 45.1027C18.6574 44.4775 18.0909 45.806 17.3876 46.2554C18.3058 39.5934 27.1167 43.1686 25.6515 50.2212ZM84.1825 55.8477C82.2093 59.5987 79.4156 63.7404 73.6329 63.8577C73.5156 62.6464 73.418 60.81 73.6329 60.0676C78.0676 59.6378 80.7832 57.3911 84.1825 55.8477ZM56.4604 58.2702C60.1527 60.2043 66.9319 60.4192 71.9527 60.263C72.2262 61.357 72.2067 62.7245 72.2262 64.053C65.7792 64.4047 58.16 62.8027 56.4604 58.2702ZM74.4729 67.3937C74.1408 68.2338 73.4375 69.2106 72.5584 69.5623C70.1945 70.5196 63.6498 71.2619 60.3676 69.5037C58.2772 68.3901 56.9488 65.8894 55.7961 64.4242C55.2491 63.7209 52.4945 61.904 55.757 61.904C58.3163 68.2924 67.0882 67.5696 74.4729 67.3937Z" fill="black"/>
<path d="M94.3414 83.0229C94.0679 80.8348 90.6295 78.51 88.8322 76.7908C87.8358 75.8139 83.1666 72.2778 82.8931 70.9494C82.6196 69.66 84.7881 66.749 85.4915 65.3033C86.4878 63.213 87.2107 60.6732 87.6991 58.9345C91.3719 46.0209 91.7431 28.2819 86.4878 17.6736C84.4951 13.6491 78.9468 8.10076 75.4693 5.46334C67.264 -0.729696 52.1037 -1.43301 42.2379 2.2203C39.4832 3.23619 36.8067 4.13487 34.4038 5.56103C27.9372 9.35109 21.0604 11.9104 19.1458 19.5491C14.418 21.659 12.9919 27.7153 13.2263 34.7484C13.2654 36.116 14.0273 37.8352 13.7538 39.1246C13.617 39.7693 12.7379 40.6093 12.5621 41.0391C10.2958 46.4507 12.1127 53.5424 14.7306 57.3911C16.3131 59.7159 18.9309 61.7673 22.3889 62.3143C22.5256 64.3851 23.0336 66.1629 23.9909 68.2533C24.5965 69.5818 26.8627 71.9653 26.0226 73.6649C25.5928 74.5245 21.92 76.361 20.6892 77.1033C16.567 79.5454 13.578 81.0692 9.76836 83.8043C7.30677 85.5626 3.4581 85.797 4.06373 89.8801C4.47399 92.6348 6.03691 96.0536 6.93558 98.8278C7.07233 99.2185 7.20909 99.6288 7.34584 100H89.7895C90.7467 97.0109 91.6845 93.9633 92.6418 90.7788C93.306 88.5517 94.6345 85.3477 94.3414 83.0229ZM39.4051 6.57692C39.7567 6.47924 40.0693 6.71367 40.3624 7.04579C40.3233 8.06169 39.3074 8.04215 38.6236 8.37427C37.5687 9.68321 36.0057 10.2888 34.7163 11.7345C33.3879 13.1998 31.9031 17.1461 30.1448 17.5955C29.2657 17.8104 28.2498 17.4392 27.4879 17.4978C25.4561 17.6345 24.0299 18.67 21.9591 18.963C24.616 13.1216 32.919 8.41334 39.4051 6.57692ZM18.9309 24.863C21.5683 21.9521 25.2021 20.1547 29.6369 19.8031C31.9226 25.6054 27.9958 32.5017 29.4611 38.8706C29.9104 40.8047 31.4538 43.8328 28.9922 43.8914C29.0508 38.3626 22.1935 34.8461 17.0164 38.1087C16.6647 33.9083 16.0591 28.0084 18.9309 24.863ZM26.1008 63.9749C25.9054 63.1739 25.5733 61.4547 25.6515 61.0249C25.964 59.3252 28.9922 58.5828 27.8005 56.1994C25.5928 56.1799 25.1044 58.1921 23.0922 58.407C17.876 58.9149 14.1836 51.4911 14.418 46.9977C14.6134 43.1881 17.8564 39.5348 22.2521 40.0037C25.3779 40.3554 26.4329 43.7547 27.0385 46.7828C28.8359 46.8805 31.4342 46.7047 32.2938 45.2981C32.1766 41.8792 30.5746 39.1246 30.6918 35.9792C30.8872 30.0597 34.1107 24.7262 31.6296 18.9044C34.2865 12.8676 42.0816 8.10076 47.8643 5.22891C55.0147 1.65375 66.4044 4.50606 73.1249 8.31566C76.9736 10.4842 79.8454 14.7041 82.561 18.2206C78.7514 17.0875 75.5084 19.0411 76.0944 22.1865C79.2789 19.2756 84.7295 22.1474 86.3511 25.3905C87.8944 28.4772 87.8749 33.0683 88.1093 37.6593C88.6759 48.7951 86.0775 60.302 80.4706 68.351C78.9663 70.5 77.716 72.8444 75.606 74.3292C70.5266 77.8848 62.8292 81.1083 56.2259 78.9007C47.4932 75.9702 43.5273 70.1484 38.7408 63.506C38.8776 67.1593 41.4369 70.1679 43.9766 72.9616C46.1842 75.4037 48.8607 78.1583 51.7326 79.2914C49.3296 78.7249 45.6567 78.549 44.6604 80.698C39.073 80.3268 33.8958 79.7603 31.2389 75.9702C29.168 72.9616 27.0581 67.8822 26.1008 63.9749ZM69.4716 88.2196C70.2726 87.6335 71.6401 87.653 72.8709 87.5162C71.816 86.9888 70.3312 86.7934 69.1004 87.0864C69.0809 86.2659 68.7097 85.758 68.4753 85.0937C70.5461 84.3513 75.4107 79.5258 78.1653 81.1278C79.4742 81.8898 80.0213 86.2464 80.1385 88.3563C80.2166 90.1146 79.9822 91.8729 79.2593 92.8106C75.5865 92.6934 72.2653 92.2636 69.3544 91.4431C69.5302 90.2513 69.159 89.0792 69.4716 88.2196ZM66.1113 84.3123C62.8292 84.4686 61.0319 84.0778 58.6289 82.2023C58.668 82.046 58.9024 82.1047 58.9219 81.9288C62.4385 83.4917 66.8928 81.2841 70.4484 80.9715C68.905 81.9679 67.5961 83.2378 66.1113 84.3123ZM63.7474 90.7984C63.4349 88.9619 63.0637 88.454 63.2004 86.852C68.0845 83.609 69.0027 92.4394 63.7474 90.7984ZM43.3319 85.6798C41.0657 85.5431 33.9349 82.9447 35.8104 81.0497C37.6468 82.3196 41.1829 82.007 43.8789 82.4759C44.0352 83.3354 43.3319 84.4686 43.3319 85.6798ZM10.4521 97.1086C9.61207 94.6275 8.65478 92.205 7.56075 89.8997C13.578 85.25 20.318 80.3464 27.5269 77.4941C28.074 77.2792 32.0594 82.4563 32.6455 82.8861C35.869 85.1719 39.874 86.9888 43.6249 88.7861C43.8594 90.5053 44.3869 92.7325 45.3246 95.7215C45.4614 96.1709 45.5981 96.6397 45.7544 97.1282H10.4521V97.1086ZM57.4567 98.2222H57.3004C57.359 98.1831 57.3981 98.144 57.4567 98.1245V98.2222ZM58.9219 97.1086C59.3322 96.8351 59.762 96.5616 60.1723 96.2685C60.3872 96.5421 60.6021 96.8156 60.7974 97.1086H58.9219ZM61.8719 92.2831C59.762 93.7093 57.8474 95.8583 55.3663 97.2063C54.1941 97.851 50.0915 99.4921 48.8412 99.199C48.1379 99.0427 48.0792 98.1636 47.7862 97.343C47.1806 95.5848 45.813 92.7715 45.6763 90.1146C45.52 86.7543 45.1879 81.1278 48.8021 81.8311C51.713 82.3977 55.1123 83.7262 57.3786 84.9765C58.7657 85.7384 59.5471 86.6566 61.657 86.8325C61.6375 87.106 61.6375 87.3795 61.618 87.6725C60.4653 88.4344 58.6289 88.4149 57.359 89.0596C59.215 89.1378 60.6802 89.5871 61.9501 90.2123C61.9305 90.8765 61.8915 91.5798 61.8719 92.2831ZM72.3044 97.1086H69.5693C69.5498 96.4835 69.0223 95.9755 68.3776 95.9755C67.7329 95.9755 67.2249 96.4835 67.1858 97.1086H63.7865C63.2395 96.249 62.6729 95.4285 62.0478 94.6666C62.458 94.2368 62.8292 93.7484 63.22 93.3186C64.9782 94.0414 66.1113 92.3613 67.4594 92.498C69.0027 92.6543 70.2335 94.7838 72.4216 94.647L72.3044 97.1086ZM74.0041 97.1086C74.0431 96.3272 74.0822 95.5848 74.1213 94.8619C77.1689 93.4358 79.7868 95.1159 81.0958 97.1086H74.0041ZM90.2974 89.8801C89.8481 92.0682 89.1643 94.5689 88.3633 97.1282C88.3242 97.1086 88.2852 97.1086 88.2461 97.1086H82.7954C82.9127 96.8937 83.0299 96.6788 83.1666 96.4639C82.6587 95.2722 81.4083 94.7642 81.0372 93.4358C83.4011 89.001 82.307 75.1888 76.3093 78.0997C77.1494 76.8689 79.357 75.853 80.3729 74.3292C82.9127 76.361 84.4365 78.2951 86.859 80.4636C88.1875 81.6358 90.7663 83.0619 91.0398 84.9765C91.1961 86.051 90.5318 88.6689 90.2974 89.8801ZM42.5895 25.4882C43.6445 22.5772 47.9034 18.709 51.3809 19.2365C52.8852 19.4709 54.8974 20.8385 53.7643 22.6945C47.8643 21.3269 44.9339 25.156 43.1365 29.161C41.5541 28.7703 42.1792 26.6017 42.5895 25.4882ZM78.556 37.8156C80.158 37.1123 82.9322 37.6789 84.3388 36.7802C83.5183 34.5335 82.3266 32.5994 82.5219 29.415C82.6196 29.415 82.7173 29.415 82.7954 29.4345C84.1239 32.2087 85.2766 35.1391 86.9762 37.5812C85.8626 40.2186 78.4584 42.5434 78.556 37.8156ZM59.6448 38.3431C58.3163 36.2136 55.9329 31.9938 56.812 29.4931C58.0819 31.818 58.4921 34.26 60.2895 35.9987C61.0905 36.7802 62.6729 37.757 61.8915 39.9451C61.7157 40.4726 60.3676 41.6252 59.6057 41.8401C56.7925 42.6802 50.2478 42.016 52.4554 38.4994C54.7802 38.6362 57.9061 40.0232 59.6448 38.3431ZM64.9782 52.0186C65.7206 53.308 65.2517 55.6719 67.3421 56.0431C71.2885 56.7073 75.86 53.6401 78.6928 52.5656C80.4511 49.5961 78.5365 48.5216 76.954 46.607C73.711 42.6997 69.3739 37.8547 69.5302 32.0133C70.8392 31.056 70.9564 33.459 71.1322 33.9083C72.8319 37.8742 77.0713 42.9342 80.1776 46.314C80.9395 47.154 82.1898 47.955 82.3266 48.502C82.7368 50.104 81.2716 52.0186 81.4474 53.0931C77.208 55.8087 72.4997 58.7782 65.5448 58.0944C64.0991 56.7855 63.5325 53.9136 64.9782 52.0186ZM25.6515 50.2212C24.323 49.4593 24.0104 46.1186 22.4475 46.0405C20.2203 45.9037 20.6306 50.3775 20.6306 52.9759C19.1068 51.5888 18.8332 47.2908 19.9468 45.1027C18.6574 44.4775 18.0909 45.806 17.3876 46.2554C18.3058 39.5934 27.1167 43.1686 25.6515 50.2212ZM84.1825 55.8477C82.2093 59.5987 79.4156 63.7404 73.6329 63.8577C73.5156 62.6464 73.418 60.81 73.6329 60.0676C78.0676 59.6378 80.7832 57.3911 84.1825 55.8477ZM56.4604 58.2702C60.1527 60.2043 66.9319 60.4192 71.9527 60.263C72.2262 61.357 72.2067 62.7245 72.2262 64.053C65.7792 64.4047 58.16 62.8027 56.4604 58.2702ZM74.4729 67.3937C74.1408 68.2338 73.4375 69.2106 72.5584 69.5623C70.1945 70.5196 63.6498 71.2619 60.3676 69.5037C58.2772 68.3901 56.9488 65.8894 55.7961 64.4242C55.2491 63.7209 52.4945 61.904 55.757 61.904C58.3163 68.2924 67.0882 67.5696 74.4729 67.3937Z" stroke="black" stroke-width="40" mask="url(#path-1-inside-1_14_39)"/>
</g>
<defs>
<filter id="filter0_dd_14_39" x="0" y="0" width="98.3831" height="108" filterUnits="userSpaceOnUse" color-interpolation-filters="sRGB">
<feFlood flood-opacity="0" result="BackgroundImageFix"/>
<feColorMatrix in="SourceAlpha" type="matrix" values="0 0 0 0 0 0 0 0 0 0 0 0 0 0 0 0 0 0 127 0" result="hardAlpha"/>
<feOffset dy="4"/>
<feGaussianBlur stdDeviation="2"/>
<feComposite in2="hardAlpha" operator="out"/>
<feColorMatrix type="matrix" values="0 0 0 0 0 0 0 0 0 0 0 0 0 0 0 0 0 0 0.25 0"/>
<feBlend mode="normal" in2="BackgroundImageFix" result="effect1_dropShadow_14_39"/>
<feColorMatrix in="SourceAlpha" type="matrix" values="0 0 0 0 0 0 0 0 0 0 0 0 0 0 0 0 0 0 127 0" result="hardAlpha"/>
<feOffset dy="4"/>
<feGaussianBlur stdDeviation="2"/>
<feComposite in2="hardAlpha" operator="out"/>
<feColorMatrix type="matrix" values="0 0 0 0 0 0 0 0 0 0 0 0 0 0 0 0 0 0 0.25 0"/>
<feBlend mode="normal" in2="effect1_dropShadow_14_39" result="effect2_dropShadow_14_39"/>
<feBlend mode="normal" in="SourceGraphic" in2="effect2_dropShadow_14_39" result="shape"/>
</filter>
</defs>
</svg>
